<svg width="28" height="27" viewBox="0 0 28 27" fill="none" xmlns="http://www.w3.org/2000/svg">
<mask id="mask0_39_17" style="mask-type:alpha" maskUnits="userSpaceOnUse" x="0" y="0" width="28" height="27">
<rect width="27.6174" height="27" fill="#D9D9D9"/>
</mask>
<g mask="url(#mask0_39_17)">
<path d="M13.8088 23.625L12.1402 22.1625C10.2032 20.4562 8.60173 18.9844 7.33593 17.7469C6.07013 16.5094 5.06325 15.3984 4.31528 14.414C3.56731 13.4297 3.04469 12.525 2.74742 11.7C2.45015 10.875 2.30151 10.0312 2.30151 9.16873C2.30151 7.40623 2.90564 5.93436 4.1139 4.75311C5.32216 3.57186 6.82769 2.98123 8.6305 2.98123C9.62779 2.98123 10.5771 3.18748 11.4785 3.59998C12.3799 4.01248 13.1567 4.59373 13.8088 5.34373C14.4608 4.59373 15.2376 4.01248 16.139 3.59998C17.0404 3.18748 17.9897 2.98123 18.987 2.98123C20.7898 2.98123 22.2953 3.57186 23.5036 4.75311C24.7119 5.93436 25.316 7.40623 25.316 9.16873C25.316 10.0312 25.1674 10.875 24.8701 11.7C24.5728 12.525 24.0502 13.4297 23.3022 14.414C22.5543 15.3984 21.5474 16.5094 20.2816 17.7469C19.0158 18.9844 17.4144 20.4562 15.4773 22.1625L13.8088 23.625ZM13.8088 20.5875C15.6499 18.975 17.165 17.5922 18.3541 16.439C19.5432 15.2859 20.483 14.2828 21.1734 13.4297C21.8638 12.5765 22.3433 11.8172 22.6118 11.1515C22.8803 10.4859 23.0145 9.82498 23.0145 9.16873C23.0145 8.04373 22.631 7.10623 21.8638 6.35623C21.0967 5.60623 20.1377 5.23123 18.987 5.23123C18.0856 5.23123 17.2513 5.47967 16.4842 5.97654C15.717 6.47342 15.1896 7.10623 14.9019 7.87498H12.7156C12.4279 7.10623 11.9005 6.47342 11.1333 5.97654C10.3662 5.47967 9.5319 5.23123 8.6305 5.23123C7.47977 5.23123 6.52083 5.60623 5.75369 6.35623C4.98654 7.10623 4.60296 8.04373 4.60296 9.16873C4.60296 9.82498 4.73721 10.4859 5.00572 11.1515C5.27422 11.8172 5.75369 12.5765 6.44412 13.4297C7.13455 14.2828 8.07431 15.2859 9.26339 16.439C10.4525 17.5922 11.9676 18.975 13.8088 20.5875Z" fill="#FF0000"/>
</g>
</svg>
